<svg xmlns="http://www.w3.org/2000/svg" xmlns:xlink="http://www.w3.org/1999/xlink" width="1920" zoomAndPan="magnify" viewBox="0 0 1440 809.999993" height="1080" preserveAspectRatio="xMidYMid meet" version="1.0"><defs><clipPath id="f9447ab4d2"><path d="M 450.042969 135.042969 L 990 135.042969 L 990 675 L 450.042969 675 Z M 450.042969 135.042969 " clip-rule="nonzero"/></clipPath></defs><path fill="#060644" d="M 828.90625 369.0625 L 610.988281 369.0625 C 604.378906 369.0625 598.796875 374.742188 598.796875 381.351562 L 598.796875 537.085938 C 598.796875 543.789062 604.289062 549.28125 610.988281 549.28125 L 828.90625 549.28125 C 835.609375 549.28125 841.195312 543.695312 841.195312 537.085938 L 841.195312 381.351562 C 841.195312 374.648438 835.515625 369.0625 828.90625 369.0625 Z M 719.996094 512.976562 C 690.394531 512.976562 666.285156 488.867188 666.285156 459.265625 C 666.285156 429.664062 690.394531 405.554688 719.996094 405.554688 C 749.597656 405.554688 773.707031 429.664062 773.707031 459.265625 C 773.707031 488.867188 749.597656 512.976562 719.996094 512.976562 Z M 719.996094 512.976562 " fill-opacity="1" fill-rule="nonzero"/><path fill="#060644" d="M 745.6875 459.265625 C 745.6875 460.109375 745.644531 460.953125 745.5625 461.792969 C 745.480469 462.632812 745.355469 463.46875 745.191406 464.296875 C 745.027344 465.125 744.820312 465.941406 744.578125 466.75 C 744.332031 467.558594 744.046875 468.351562 743.722656 469.132812 C 743.402344 469.914062 743.039062 470.675781 742.640625 471.417969 C 742.246094 472.164062 741.8125 472.886719 741.339844 473.589844 C 740.871094 474.292969 740.371094 474.96875 739.835938 475.621094 C 739.296875 476.277344 738.730469 476.902344 738.132812 477.496094 C 737.539062 478.09375 736.914062 478.660156 736.257812 479.195312 C 735.605469 479.734375 734.929688 480.234375 734.226562 480.703125 C 733.523438 481.171875 732.800781 481.605469 732.058594 482.003906 C 731.3125 482.402344 730.550781 482.765625 729.769531 483.085938 C 728.988281 483.410156 728.195312 483.695312 727.386719 483.941406 C 726.578125 484.183594 725.761719 484.390625 724.933594 484.554688 C 724.105469 484.71875 723.269531 484.84375 722.429688 484.925781 C 721.589844 485.007812 720.746094 485.050781 719.902344 485.050781 C 719.058594 485.050781 718.214844 485.007812 717.375 484.925781 C 716.535156 484.84375 715.699219 484.71875 714.871094 484.554688 C 714.042969 484.390625 713.226562 484.183594 712.417969 483.941406 C 711.609375 483.695312 710.8125 483.410156 710.035156 483.085938 C 709.253906 482.765625 708.492188 482.402344 707.746094 482.003906 C 707.003906 481.605469 706.277344 481.171875 705.578125 480.703125 C 704.875 480.234375 704.195312 479.734375 703.542969 479.195312 C 702.890625 478.660156 702.265625 478.09375 701.667969 477.496094 C 701.070312 476.902344 700.503906 476.277344 699.96875 475.621094 C 699.433594 474.96875 698.929688 474.292969 698.460938 473.589844 C 697.992188 472.886719 697.558594 472.164062 697.160156 471.417969 C 696.761719 470.675781 696.402344 469.914062 696.078125 469.132812 C 695.757812 468.351562 695.472656 467.558594 695.226562 466.75 C 694.980469 465.941406 694.777344 465.125 694.613281 464.296875 C 694.449219 463.46875 694.324219 462.632812 694.242188 461.792969 C 694.15625 460.953125 694.117188 460.109375 694.117188 459.265625 C 694.117188 458.421875 694.15625 457.578125 694.242188 456.738281 C 694.324219 455.898438 694.449219 455.0625 694.613281 454.234375 C 694.777344 453.40625 694.980469 452.589844 695.226562 451.78125 C 695.472656 450.972656 695.757812 450.175781 696.078125 449.398438 C 696.402344 448.617188 696.761719 447.855469 697.160156 447.109375 C 697.558594 446.363281 697.992188 445.640625 698.460938 444.9375 C 698.929688 444.238281 699.433594 443.558594 699.96875 442.90625 C 700.503906 442.253906 701.070312 441.628906 701.667969 441.03125 C 702.265625 440.433594 702.890625 439.867188 703.542969 439.332031 C 704.195312 438.796875 704.875 438.292969 705.578125 437.824219 C 706.277344 437.355469 707.003906 436.921875 707.746094 436.523438 C 708.492188 436.125 709.253906 435.765625 710.035156 435.441406 C 710.8125 435.121094 711.609375 434.835938 712.417969 434.589844 C 713.226562 434.34375 714.042969 434.140625 714.871094 433.976562 C 715.699219 433.808594 716.535156 433.6875 717.375 433.605469 C 718.214844 433.519531 719.058594 433.480469 719.902344 433.480469 C 720.746094 433.480469 721.589844 433.519531 722.429688 433.605469 C 723.269531 433.6875 724.105469 433.808594 724.933594 433.976562 C 725.761719 434.140625 726.578125 434.34375 727.386719 434.589844 C 728.195312 434.835938 728.988281 435.121094 729.769531 435.441406 C 730.550781 435.765625 731.3125 436.125 732.058594 436.523438 C 732.800781 436.921875 733.523438 437.355469 734.226562 437.824219 C 734.929688 438.292969 735.605469 438.796875 736.257812 439.332031 C 736.914062 439.867188 737.539062 440.433594 738.132812 441.03125 C 738.730469 441.628906 739.296875 442.253906 739.835938 442.90625 C 740.371094 443.558594 740.871094 444.238281 741.339844 444.9375 C 741.8125 445.640625 742.246094 446.363281 742.640625 447.109375 C 743.039062 447.855469 743.402344 448.617188 743.722656 449.398438 C 744.046875 450.175781 744.332031 450.972656 744.578125 451.78125 C 744.820312 452.589844 745.027344 453.40625 745.191406 454.234375 C 745.355469 455.0625 745.480469 455.898438 745.5625 456.738281 C 745.644531 457.578125 745.6875 458.421875 745.6875 459.265625 Z M 745.6875 459.265625 " fill-opacity="1" fill-rule="nonzero"/><g clip-path="url(#f9447ab4d2)"><path fill="#060644" d="M 719.996094 135.042969 C 570.867188 135.042969 450.042969 255.867188 450.042969 404.996094 C 450.042969 554.121094 570.867188 674.949219 719.996094 674.949219 C 869.121094 674.949219 989.949219 554.121094 989.949219 404.996094 C 989.949219 255.867188 869.121094 135.042969 719.996094 135.042969 Z M 869.121094 537.085938 C 869.121094 559.148438 851.0625 577.207031 828.90625 577.207031 L 610.988281 577.207031 C 588.929688 577.207031 570.867188 559.242188 570.867188 537.085938 L 570.867188 381.351562 C 570.867188 359.195312 588.835938 341.136719 610.988281 341.136719 L 624.582031 341.136719 L 624.582031 328.011719 C 624.582031 275.511719 667.402344 232.785156 719.996094 232.785156 C 753.226562 232.785156 784.503906 250.5625 801.632812 279.140625 C 805.636719 285.75 803.496094 294.3125 796.886719 298.316406 C 790.277344 302.320312 781.710938 300.179688 777.710938 293.570312 C 765.515625 273.371094 743.453125 260.804688 719.996094 260.804688 C 682.761719 260.804688 652.507812 290.964844 652.507812 328.105469 L 652.507812 341.230469 L 828.90625 341.230469 C 851.0625 341.230469 869.121094 359.289062 869.121094 381.445312 L 869.121094 537.179688 Z M 869.121094 537.085938 " fill-opacity="1" fill-rule="nonzero"/></g></svg>