<svg xmlns="http://www.w3.org/2000/svg" xmlns:xlink="http://www.w3.org/1999/xlink" width="1920" zoomAndPan="magnify" viewBox="0 0 1440 809.999993" height="1080" preserveAspectRatio="xMidYMid meet" version="1.0"><defs><clipPath id="a2e0208c33"><path d="M 448.367188 126.683594 L 988.367188 126.683594 L 988.367188 666.683594 L 448.367188 666.683594 Z M 448.367188 126.683594 " clip-rule="nonzero"/></clipPath></defs><g clip-path="url(#a2e0208c33)"><path fill="#060644" d="M 718.320312 126.683594 C 713.902344 126.683594 709.488281 126.792969 705.074219 127.007812 C 700.664062 127.226562 696.257812 127.550781 691.859375 127.984375 C 687.464844 128.417969 683.082031 128.957031 678.710938 129.605469 C 674.339844 130.253906 669.988281 131.007812 665.65625 131.871094 C 661.324219 132.734375 657.011719 133.699219 652.726562 134.773438 C 648.441406 135.847656 644.183594 137.027344 639.957031 138.308594 C 635.730469 139.589844 631.535156 140.976562 627.375 142.464844 C 623.214844 143.953125 619.097656 145.542969 615.015625 147.234375 C 610.933594 148.921875 606.894531 150.714844 602.902344 152.601562 C 598.90625 154.492188 594.960938 156.476562 591.066406 158.558594 C 587.167969 160.640625 583.328125 162.820312 579.539062 165.089844 C 575.746094 167.363281 572.015625 169.726562 568.34375 172.179688 C 564.667969 174.632812 561.058594 177.175781 557.511719 179.808594 C 553.960938 182.441406 550.480469 185.15625 547.066406 187.960938 C 543.648438 190.761719 540.304688 193.648438 537.03125 196.613281 C 533.757812 199.582031 530.558594 202.628906 527.433594 205.75 C 524.3125 208.875 521.265625 212.074219 518.300781 215.347656 C 515.332031 218.621094 512.445312 221.964844 509.644531 225.378906 C 506.839844 228.796875 504.125 232.277344 501.492188 235.828125 C 498.859375 239.375 496.316406 242.984375 493.863281 246.660156 C 491.410156 250.332031 489.046875 254.0625 486.773438 257.855469 C 484.503906 261.644531 482.324219 265.484375 480.242188 269.382812 C 478.160156 273.277344 476.175781 277.222656 474.285156 281.21875 C 472.398438 285.210938 470.609375 289.25 468.917969 293.332031 C 467.226562 297.414062 465.636719 301.53125 464.148438 305.691406 C 462.660156 309.851562 461.273438 314.046875 459.992188 318.273438 C 458.710938 322.5 457.53125 326.757812 456.457031 331.042969 C 455.382812 335.328125 454.417969 339.640625 453.554688 343.972656 C 452.691406 348.304688 451.9375 352.65625 451.289062 357.027344 C 450.640625 361.398438 450.101562 365.78125 449.667969 370.175781 C 449.234375 374.574219 448.910156 378.980469 448.691406 383.390625 C 448.476562 387.804688 448.367188 392.21875 448.367188 396.636719 C 448.367188 401.054688 448.476562 405.46875 448.691406 409.882812 C 448.910156 414.296875 449.234375 418.699219 449.667969 423.097656 C 450.101562 427.492188 450.640625 431.878906 451.289062 436.246094 C 451.9375 440.617188 452.691406 444.96875 453.554688 449.300781 C 454.417969 453.636719 455.382812 457.945312 456.457031 462.230469 C 457.53125 466.515625 458.710938 470.773438 459.992188 475 C 461.273438 479.226562 462.660156 483.421875 464.148438 487.582031 C 465.636719 491.742188 467.226562 495.863281 468.917969 499.945312 C 470.609375 504.027344 472.398438 508.0625 474.285156 512.058594 C 476.175781 516.050781 478.160156 519.996094 480.242188 523.890625 C 482.324219 527.789062 484.503906 531.632812 486.773438 535.421875 C 489.046875 539.210938 491.410156 542.941406 493.863281 546.613281 C 496.316406 550.289062 498.859375 553.898438 501.492188 557.449219 C 504.125 560.996094 506.839844 564.480469 509.644531 567.894531 C 512.445312 571.308594 515.332031 574.652344 518.300781 577.925781 C 521.265625 581.199219 524.3125 584.398438 527.433594 587.523438 C 530.558594 590.648438 533.757812 593.691406 537.03125 596.660156 C 540.304688 599.625 543.648438 602.511719 547.066406 605.3125 C 550.480469 608.117188 553.960938 610.832031 557.511719 613.464844 C 561.058594 616.097656 564.667969 618.640625 568.34375 621.09375 C 572.015625 623.550781 575.746094 625.914062 579.539062 628.183594 C 583.328125 630.453125 587.167969 632.632812 591.066406 634.714844 C 594.960938 636.796875 598.90625 638.78125 602.902344 640.671875 C 606.894531 642.5625 610.933594 644.351562 615.015625 646.042969 C 619.097656 647.730469 623.214844 649.320312 627.375 650.808594 C 631.535156 652.296875 635.730469 653.683594 639.957031 654.964844 C 644.183594 656.25 648.441406 657.425781 652.726562 658.5 C 657.011719 659.574219 661.324219 660.542969 665.65625 661.402344 C 669.988281 662.265625 674.339844 663.019531 678.710938 663.667969 C 683.082031 664.316406 687.464844 664.855469 691.859375 665.289062 C 696.257812 665.722656 700.664062 666.046875 705.074219 666.265625 C 709.488281 666.480469 713.902344 666.589844 718.320312 666.589844 C 722.738281 666.589844 727.152344 666.480469 731.566406 666.265625 C 735.980469 666.046875 740.382812 665.722656 744.78125 665.289062 C 749.175781 664.855469 753.5625 664.316406 757.929688 663.667969 C 762.300781 663.019531 766.652344 662.265625 770.984375 661.402344 C 775.320312 660.542969 779.628906 659.574219 783.914062 658.5 C 788.199219 657.425781 792.457031 656.25 796.683594 654.964844 C 800.910156 653.683594 805.105469 652.296875 809.265625 650.808594 C 813.425781 649.320312 817.546875 647.730469 821.628906 646.042969 C 825.710938 644.351562 829.746094 642.5625 833.742188 640.671875 C 837.734375 638.78125 841.679688 636.796875 845.574219 634.714844 C 849.472656 632.632812 853.316406 630.453125 857.105469 628.183594 C 860.894531 625.914062 864.625 623.550781 868.296875 621.09375 C 871.972656 618.640625 875.582031 616.097656 879.132812 613.464844 C 882.679688 610.832031 886.164062 608.117188 889.578125 605.3125 C 892.992188 602.511719 896.335938 599.625 899.609375 596.660156 C 902.882812 593.691406 906.082031 590.648438 909.207031 587.523438 C 912.332031 584.398438 915.375 581.199219 918.34375 577.925781 C 921.308594 574.652344 924.195312 571.308594 926.996094 567.894531 C 929.800781 564.480469 932.515625 560.996094 935.148438 557.449219 C 937.78125 553.898438 940.324219 550.289062 942.777344 546.613281 C 945.234375 542.941406 947.597656 539.210938 949.867188 535.421875 C 952.140625 531.632812 954.316406 527.789062 956.398438 523.890625 C 958.480469 519.996094 960.464844 516.050781 962.355469 512.058594 C 964.246094 508.0625 966.035156 504.027344 967.726562 499.945312 C 969.414062 495.863281 971.003906 491.742188 972.492188 487.582031 C 973.980469 483.421875 975.367188 479.226562 976.648438 475 C 977.933594 470.773438 979.109375 466.515625 980.183594 462.230469 C 981.257812 457.945312 982.226562 453.636719 983.085938 449.300781 C 983.949219 444.96875 984.703125 440.617188 985.351562 436.246094 C 986 431.878906 986.542969 427.492188 986.972656 423.097656 C 987.40625 418.699219 987.730469 414.296875 987.949219 409.882812 C 988.164062 405.46875 988.273438 401.054688 988.273438 396.636719 C 988.273438 392.21875 988.164062 387.804688 987.949219 383.390625 C 987.730469 378.980469 987.40625 374.574219 986.972656 370.179688 C 986.539062 365.78125 985.996094 361.398438 985.347656 357.027344 C 984.699219 352.660156 983.945312 348.308594 983.082031 343.972656 C 982.21875 339.640625 981.25 335.332031 980.175781 331.046875 C 979.101562 326.761719 977.925781 322.503906 976.640625 318.277344 C 975.359375 314.050781 973.972656 309.855469 972.484375 305.699219 C 970.996094 301.539062 969.40625 297.417969 967.714844 293.335938 C 966.023438 289.253906 964.234375 285.21875 962.347656 281.222656 C 960.457031 277.230469 958.472656 273.285156 956.386719 269.390625 C 954.304688 265.492188 952.128906 261.648438 949.855469 257.859375 C 947.585938 254.070312 945.222656 250.339844 942.769531 246.667969 C 940.3125 242.992188 937.769531 239.382812 935.140625 235.835938 C 932.507812 232.285156 929.789062 228.804688 926.988281 225.390625 C 924.183594 221.976562 921.300781 218.628906 918.332031 215.355469 C 915.367188 212.082031 912.320312 208.886719 909.195312 205.761719 C 906.074219 202.636719 902.875 199.59375 899.601562 196.625 C 896.328125 193.660156 892.984375 190.773438 889.566406 187.972656 C 886.152344 185.167969 882.671875 182.449219 879.125 179.820312 C 875.574219 177.1875 871.964844 174.644531 868.289062 172.191406 C 864.617188 169.734375 860.886719 167.371094 857.097656 165.101562 C 853.308594 162.828125 849.464844 160.652344 845.570312 158.570312 C 841.671875 156.488281 837.726562 154.5 833.734375 152.613281 C 829.742188 150.722656 825.703125 148.933594 821.621094 147.242188 C 817.539062 145.550781 813.421875 143.960938 809.261719 142.472656 C 805.101562 140.984375 800.90625 139.597656 796.679688 138.316406 C 792.453125 137.03125 788.195312 135.855469 783.910156 134.78125 C 779.625 133.707031 775.316406 132.738281 770.984375 131.875 C 766.652344 131.015625 762.300781 130.257812 757.929688 129.609375 C 753.558594 128.960938 749.175781 128.421875 744.78125 127.988281 C 740.382812 127.554688 735.980469 127.226562 731.566406 127.011719 C 727.152344 126.792969 722.738281 126.683594 718.320312 126.683594 Z M 718.320312 227.917969 C 719.917969 227.914062 721.515625 227.960938 723.109375 228.050781 C 724.703125 228.144531 726.292969 228.28125 727.878906 228.464844 C 729.464844 228.648438 731.046875 228.878906 732.617188 229.152344 C 734.191406 229.429688 735.757812 229.75 737.308594 230.113281 C 738.863281 230.480469 740.40625 230.890625 741.9375 231.34375 C 743.46875 231.800781 744.984375 232.296875 746.488281 232.839844 C 747.992188 233.382812 749.476562 233.96875 750.945312 234.597656 C 752.410156 235.226562 753.859375 235.894531 755.289062 236.609375 C 756.71875 237.320312 758.128906 238.074219 759.511719 238.867188 C 760.898438 239.660156 762.261719 240.492188 763.597656 241.367188 C 764.9375 242.238281 766.246094 243.148438 767.53125 244.097656 C 768.816406 245.046875 770.074219 246.03125 771.300781 247.050781 C 772.53125 248.074219 773.726562 249.128906 774.894531 250.21875 C 776.058594 251.308594 777.195312 252.433594 778.296875 253.589844 C 779.398438 254.742188 780.464844 255.929688 781.5 257.148438 C 782.53125 258.367188 783.53125 259.613281 784.492188 260.890625 C 785.453125 262.164062 786.375 263.464844 787.261719 264.796875 C 788.148438 266.125 788.992188 267.476562 789.800781 268.855469 C 790.609375 270.234375 791.375 271.632812 792.101562 273.054688 C 792.828125 274.476562 793.511719 275.921875 794.15625 277.382812 C 794.796875 278.84375 795.398438 280.324219 795.957031 281.820312 C 796.511719 283.316406 797.027344 284.828125 797.496094 286.355469 C 797.964844 287.878906 798.390625 289.417969 798.773438 290.96875 C 799.152344 292.519531 799.488281 294.082031 799.78125 295.652344 C 800.070312 297.222656 800.316406 298.800781 800.515625 300.382812 C 800.714844 301.96875 800.867188 303.558594 800.976562 305.152344 C 801.082031 306.746094 801.144531 308.339844 801.15625 309.9375 C 801.171875 311.535156 801.140625 313.128906 801.066406 314.726562 C 800.988281 316.320312 800.863281 317.910156 800.695312 319.5 C 800.523438 321.089844 800.308594 322.667969 800.050781 324.246094 C 799.789062 325.820312 799.480469 327.386719 799.128906 328.945312 C 798.777344 330.503906 798.382812 332.050781 797.941406 333.585938 C 797.5 335.121094 797.015625 336.640625 796.484375 338.148438 C 795.957031 339.652344 795.382812 341.144531 794.769531 342.617188 C 794.152344 344.09375 793.496094 345.546875 792.796875 346.980469 C 792.097656 348.417969 791.355469 349.832031 790.574219 351.226562 C 789.792969 352.617188 788.972656 353.988281 788.113281 355.332031 C 787.253906 356.679688 786.355469 357.996094 785.417969 359.289062 C 784.480469 360.582031 783.507812 361.847656 782.496094 363.085938 C 781.484375 364.324219 780.441406 365.53125 779.359375 366.707031 C 778.28125 367.882812 777.167969 369.027344 776.023438 370.140625 C 774.875 371.25 773.699219 372.328125 772.488281 373.375 C 771.28125 374.417969 770.042969 375.425781 768.777344 376.398438 C 767.511719 377.371094 766.214844 378.304688 764.894531 379.203125 C 763.574219 380.101562 762.226562 380.960938 760.859375 381.777344 C 759.488281 382.597656 758.09375 383.378906 756.679688 384.117188 C 755.261719 384.855469 753.828125 385.554688 752.371094 386.210938 C 750.914062 386.867188 749.441406 387.480469 747.949219 388.050781 C 746.457031 388.621094 744.949219 389.148438 743.429688 389.628906 C 741.90625 390.113281 740.371094 390.554688 738.824219 390.949219 C 737.277344 391.34375 735.71875 391.691406 734.152344 391.996094 C 732.582031 392.300781 731.007812 392.558594 729.425781 392.773438 C 727.84375 392.988281 726.253906 393.152344 724.664062 393.277344 C 723.070312 393.398438 721.476562 393.472656 719.878906 393.503906 C 718.28125 393.53125 716.6875 393.515625 715.089844 393.453125 C 713.496094 393.386719 711.902344 393.277344 710.3125 393.125 C 708.722656 392.96875 707.140625 392.765625 705.5625 392.519531 C 703.984375 392.273438 702.414062 391.980469 700.851562 391.644531 C 699.292969 391.304688 697.742188 390.921875 696.203125 390.496094 C 694.664062 390.070312 693.140625 389.597656 691.628906 389.082031 C 690.117188 388.566406 688.621094 388.007812 687.140625 387.40625 C 685.664062 386.800781 684.203125 386.15625 682.761719 385.472656 C 681.320312 384.785156 679.898438 384.058594 678.5 383.289062 C 677.097656 382.519531 675.722656 381.710938 674.371094 380.863281 C 604.855469 336.824219 634.972656 228.761719 718.320312 227.917969 Z M 815.417969 565.359375 L 621.222656 565.359375 C 619.21875 565.355469 617.21875 565.253906 615.226562 565.050781 C 613.230469 564.851562 611.253906 564.554688 609.289062 564.160156 C 607.324219 563.765625 605.382812 563.277344 603.464844 562.695312 C 601.550781 562.109375 599.664062 561.433594 597.816406 560.664062 C 595.964844 559.894531 594.15625 559.035156 592.390625 558.089844 C 590.625 557.144531 588.910156 556.113281 587.242188 554.996094 C 585.578125 553.882812 583.972656 552.6875 582.425781 551.417969 C 580.875 550.144531 579.394531 548.796875 577.980469 547.378906 C 576.5625 545.960938 575.21875 544.480469 573.949219 542.929688 C 572.679688 541.378906 571.488281 539.769531 570.375 538.105469 C 569.261719 536.4375 568.234375 534.722656 567.289062 532.953125 C 566.34375 531.1875 565.488281 529.375 564.722656 527.527344 C 563.957031 525.675781 563.28125 523.789062 562.699219 521.871094 C 562.117188 519.953125 561.632812 518.011719 561.242188 516.046875 C 560.847656 514.082031 560.554688 512.101562 560.359375 510.109375 C 560.160156 508.113281 560.0625 506.117188 560.0625 504.113281 C 560.0625 452.230469 598.277344 407.433594 653.109375 387.273438 C 655.367188 389.183594 657.703125 390.988281 660.117188 392.691406 C 662.535156 394.398438 665.019531 395.992188 667.574219 397.476562 C 670.128906 398.964844 672.746094 400.332031 675.421875 401.589844 C 678.097656 402.847656 680.820312 403.980469 683.597656 405 C 686.371094 406.015625 689.1875 406.910156 692.042969 407.675781 C 694.894531 408.445312 697.777344 409.089844 700.6875 409.605469 C 703.597656 410.121094 706.527344 410.511719 709.46875 410.769531 C 712.414062 411.027344 715.363281 411.15625 718.320312 411.15625 C 721.277344 411.15625 724.226562 411.027344 727.171875 410.769531 C 730.117188 410.511719 733.042969 410.121094 735.953125 409.605469 C 738.863281 409.089844 741.746094 408.445312 744.601562 407.675781 C 747.453125 406.910156 750.269531 406.015625 753.042969 405 C 755.820312 403.980469 758.546875 402.847656 761.222656 401.589844 C 763.898438 400.332031 766.511719 398.964844 769.066406 397.476562 C 771.625 395.992188 774.109375 394.398438 776.523438 392.691406 C 778.9375 390.988281 781.273438 389.183594 783.53125 387.273438 C 838.367188 407.433594 876.582031 452.230469 876.582031 504.113281 C 876.578125 506.117188 876.480469 508.113281 876.285156 510.109375 C 876.085938 512.101562 875.792969 514.082031 875.402344 516.046875 C 875.007812 518.011719 874.523438 519.953125 873.941406 521.871094 C 873.359375 523.789062 872.683594 525.675781 871.917969 527.527344 C 871.152344 529.375 870.296875 531.1875 869.351562 532.953125 C 868.40625 534.722656 867.378906 536.4375 866.265625 538.105469 C 865.15625 539.769531 863.960938 541.378906 862.691406 542.929688 C 861.421875 544.480469 860.078125 545.960938 858.664062 547.378906 C 857.246094 548.796875 855.765625 550.144531 854.21875 551.417969 C 852.667969 552.6875 851.0625 553.882812 849.398438 554.996094 C 847.734375 556.113281 846.015625 557.144531 844.25 558.089844 C 842.484375 559.035156 840.675781 559.894531 838.828125 560.664062 C 836.976562 561.433594 835.09375 562.109375 833.175781 562.695312 C 831.257812 563.277344 829.320312 563.765625 827.355469 564.160156 C 825.390625 564.554688 823.410156 564.851562 821.417969 565.050781 C 819.421875 565.253906 817.421875 565.355469 815.417969 565.359375 Z M 815.417969 565.359375 " fill-opacity="1" fill-rule="nonzero"/></g></svg>